<svg xmlns="http://www.w3.org/2000/svg" xmlns:xlink="http://www.w3.org/1999/xlink" viewBox="0,0,256,256" width="100px" height="100px" fill-rule="nonzero"><g fill="#363636" fill-rule="nonzero" stroke="none" stroke-width="1" stroke-linecap="butt" stroke-linejoin="miter" stroke-miterlimit="10" stroke-dasharray="" stroke-dashoffset="0" font-family="none" font-weight="none" font-size="none" text-anchor="none" style="mix-blend-mode: normal"><g transform="scale(5.12,5.12)"><path d="M6,4c-1.1,0 -2,0.9 -2,2v38c0,1.1 0.9,2 2,2h38c1.1,0 2,-0.9 2,-2v-38c0,-1.1 -0.9,-2 -2,-2zM29,14c6.07,0 11,4.93 11,11c0,6.07 -4.93,11 -11,11h-5h-4.5c-5.24,0 -9.5,-4.26 -9.5,-9.5c0,-5.24 4.26,-9.5 9.5,-9.5c0.61,0 1.1993,0.05992 1.7793,0.16992c1.99,-1.96 4.7107,-3.16992 7.7207,-3.16992zM29,16c-2.06,0 -4.02914,0.7007 -5.61914,1.9707c0.65,0.33 1.25836,0.73016 1.81836,1.16016c1.12,-0.74 2.43078,-1.13086 3.80078,-1.13086c3.86,0 7,3.14 7,7c0,3.86 -3.14,7 -7,7c-3.11,0 -5.25906,-2.34984 -7.53906,-4.83984c-0.58,-0.64 -1.16,-1.27109 -1.75,-1.87109c-0.39,-0.39 -1.03187,-0.39 -1.42188,0c-0.39,0.39 -0.39,1.03187 0,1.42188c0.58,0.57 1.14117,1.18883 1.70117,1.79883l1.04883,1.14063c1.25,1.33 2.57086,2.57867 4.13086,3.38867c1.13,0.59 2.39008,0.96094 3.83008,0.96094c4.96,0 9,-4.04 9,-9c0,-4.96 -4.04,-9 -9,-9zM19.5,19c-4.14,0 -7.5,3.36 -7.5,7.5c0,4.14 3.36,7.5 7.5,7.5c0.94,0 1.8607,-0.16977 2.7207,-0.50977c-0.64,-0.5 -1.23148,-1.04008 -1.77148,-1.58008c-0.31,0.06 -0.62922,0.08984 -0.94922,0.08984c-3.03,0 -5.5,-2.47 -5.5,-5.5c0,-3.03 2.47,-5.5 5.5,-5.5c2.28,0 4.20039,2.00906 5.90039,3.78906c0.31,0.32 0.59867,0.63188 0.88867,0.92188c0.39,0.39 1.03187,0.39 1.42188,0c0.39,-0.39 0.39,-1.03187 0,-1.42188c-0.28,-0.28 -0.57133,-0.57891 -0.86133,-0.87891c-0.8,-0.85 -1.68945,-1.77078 -2.68945,-2.55078c-0.46,-0.37 -0.94094,-0.69852 -1.46094,-0.97852c-0.97,-0.54 -2.02922,-0.88086 -3.19922,-0.88086z"></path></g></g></svg>