<?xml version="1.0" encoding="UTF-8"?>
<svg xmlns="http://www.w3.org/2000/svg" xmlns:xlink="http://www.w3.org/1999/xlink" viewBox="0 0 120 120" width="120px" height="120px">
<g id="surface4084516">
<path style=" stroke:none;fill-rule:nonzero;fill:rgb(21.176471%,21.176471%,21.176471%);fill-opacity:1;" d="M 34.800781 29.199219 C 31.707031 29.199219 29.199219 31.707031 29.199219 34.800781 L 29.199219 85.199219 C 29.199219 88.292969 31.707031 90.800781 34.800781 90.800781 L 85.199219 90.800781 C 88.292969 90.800781 90.800781 88.292969 90.800781 85.199219 L 90.800781 34.800781 C 90.800781 31.707031 88.292969 29.199219 85.199219 29.199219 Z M 73.046875 43.894531 C 74.789062 43.894531 75.980469 45.003906 75.980469 46.519531 C 75.980469 48.035156 74.789062 49.144531 73.046875 49.144531 C 71.328125 49.144531 70.121094 48.035156 70.121094 46.519531 C 70.121094 45.003906 71.328125 43.894531 73.046875 43.894531 Z M 51.019531 45.867188 L 56.570312 45.867188 L 66.386719 73.492188 L 61.089844 73.492188 L 58.753906 66.429688 L 48.59375 66.429688 L 46.214844 73.492188 L 41.21875 73.492188 Z M 53.523438 51.128906 L 49.742188 62.519531 L 57.605469 62.519531 L 53.851562 51.128906 Z M 70.695312 52.550781 L 75.421875 52.550781 L 75.421875 73.492188 L 70.695312 73.492188 Z M 70.695312 52.550781 "/>
</g>
</svg>
